<svg width="24" height="24" viewBox="0 0 24 24" fill="none" xmlns="http://www.w3.org/2000/svg">
<path d="M21.25 12C21.25 17.1086 17.1086 21.25 12 21.25C6.89137 21.25 2.75 17.1086 2.75 12C2.75 6.89137 6.89137 2.75 12 2.75C17.1086 2.75 21.25 6.89137 21.25 12Z" stroke="#0F172A" stroke-width="1.5" stroke-linejoin="round"/>
<path d="M14.6558 8.73024L10.5513 9.84966C10.2097 9.94282 9.94279 10.2097 9.84963 10.5513L8.73021 14.6558C8.62841 15.0291 8.9709 15.3716 9.34415 15.2698L13.4487 14.1504C13.7903 14.0572 14.0572 13.7903 14.1504 13.4487L15.2698 9.34418C15.3716 8.97093 15.0291 8.62844 14.6558 8.73024Z" stroke="#0F172A" stroke-width="1.5" stroke-linejoin="round"/>
</svg>
