<svg width="24" height="24" viewBox="0 0 24 24" fill="none" xmlns="http://www.w3.org/2000/svg">
<path fill-rule="evenodd" clip-rule="evenodd" d="M3.63022 5.87511C3.69717 4.26823 5.01934 3 6.62762 3H17.8724C19.5783 3 20.9408 4.42052 20.8698 6.12489L20.527 14.3527C20.4957 15.1045 20.183 15.817 19.6509 16.3491L15.8787 20.1213C15.3161 20.6839 14.553 21 13.7574 21H6.12762C4.42176 21 3.0592 19.5795 3.13022 17.8751L3.63022 5.87511ZM6.12756 7.5C6.12756 6.67157 6.79914 6 7.62756 6H16.6276C17.456 6 18.1276 6.67157 18.1276 7.5C18.1276 8.32843 17.456 9 16.6276 9H7.62756C6.79914 9 6.12756 8.32843 6.12756 7.5ZM9.40601 14.3835C9.71386 12.1576 11.6165 10.5 13.8636 10.5H16.4999C17.3284 10.5 17.9999 11.1716 17.9999 12C17.9999 12.8284 17.3284 13.5 16.4999 13.5H13.8636C13.1146 13.5 12.4803 14.0525 12.3777 14.7945L12.1134 16.7055C11.9999 17.5261 11.2427 18.0994 10.4221 17.9859C9.60145 17.8724 9.02821 17.1151 9.14171 16.2945L9.40601 14.3835Z" fill="#191C23"/>
</svg>
