<svg width="24" height="24" viewBox="0 0 24 24" fill="none" xmlns="http://www.w3.org/2000/svg">
<path d="M3.75 10.2746C3.75 9.43888 3.75 9.02101 3.85513 8.63441C3.94828 8.2919 4.10146 7.96863 4.30757 7.67965C4.54021 7.35347 4.86363 7.08886 5.51046 6.55963L8.96046 3.7369C10.0433 2.8509 10.5848 2.4079 11.1874 2.23834C11.7188 2.08881 12.2812 2.08881 12.8126 2.23834C13.4152 2.4079 13.9567 2.8509 15.0395 3.73691L18.4895 6.55963C19.1364 7.08886 19.4598 7.35347 19.6924 7.67965C19.8985 7.96863 20.0517 8.2919 20.1449 8.63441C20.25 9.02101 20.25 9.43888 20.25 10.2746V15.45C20.25 17.1302 20.25 17.9702 19.923 18.612C19.6354 19.1765 19.1765 19.6354 18.612 19.923C17.9702 20.25 17.1302 20.25 15.45 20.25H8.55C6.86984 20.25 6.02976 20.25 5.38803 19.923C4.82354 19.6354 4.3646 19.1765 4.07698 18.612C3.75 17.9702 3.75 17.1302 3.75 15.45V10.2746Z" stroke="#0F172A" stroke-width="1.5" stroke-linejoin="round"/>
</svg>
